<svg width="218" height="218" viewBox="0 0 218 218" fill="none" xmlns="http://www.w3.org/2000/svg">
<rect width="218" height="218" fill="#156064"/>
<path d="M116.313 186C106.562 186 97.0937 184.872 87.9078 182.615C78.8633 180.359 70.7373 176.41 63.53 170.769C56.3226 165.128 50.5991 157.301 46.3594 147.288C42.1198 137.276 40 124.513 40 109C40 95.0385 42.0492 83.1923 46.1475 73.4615C50.2458 63.5898 55.828 55.6218 62.894 49.5577C69.9601 43.4936 78.086 39.0513 87.2719 36.2308C96.4578 33.4103 106.138 32 116.313 32C123.521 32 130.516 32.5641 137.3 33.6923C144.224 34.8205 149.241 36.0897 152.35 37.5L178 58.8654L156.802 93.7692L116.313 75.1539C111.508 75.1539 106.986 76.4936 102.747 79.1731C98.6482 81.7115 95.2565 85.5192 92.5714 90.5962C90.0276 95.5321 88.7558 101.667 88.7558 109C88.7558 118.308 90.169 125.5 92.9954 130.577C95.9631 135.513 100.132 138.897 105.502 140.731C111.014 142.564 117.515 143.481 125.005 143.481C132.212 143.481 138.995 142.776 145.355 141.365C151.856 139.814 157.579 138.051 162.525 136.077C167.472 134.103 171.217 132.41 173.76 131V173.308C170.934 174.718 166.906 176.481 161.677 178.596C156.59 180.571 150.23 182.333 142.599 183.885C135.109 185.295 126.347 186 116.313 186Z" fill="white"/>
</svg>
